<svg id="dashboard" xmlns="http://www.w3.org/2000/svg" width="23.332" height="23.332" viewBox="0 0 23.332 23.332">
  <path id="Caminho_2" data-name="Caminho 2" d="M9.25,0H1.75A1.752,1.752,0,0,0,0,1.75v4.5A1.752,1.752,0,0,0,1.75,8h7.5A1.752,1.752,0,0,0,11,6.25V1.75A1.752,1.752,0,0,0,9.25,0Zm0,0" fill="#fff"/>
  <path id="Caminho_3" data-name="Caminho 3" d="M9.25,213.332H1.75A1.752,1.752,0,0,0,0,215.082v10.5a1.752,1.752,0,0,0,1.75,1.75h7.5a1.752,1.752,0,0,0,1.75-1.75v-10.5A1.752,1.752,0,0,0,9.25,213.332Zm0,0" transform="translate(0 -204)" fill="#fff"/>
  <path id="Caminho_4" data-name="Caminho 4" d="M286.582,341.332h-7.5a1.752,1.752,0,0,0-1.75,1.75v4.5a1.752,1.752,0,0,0,1.75,1.75h7.5a1.752,1.752,0,0,0,1.75-1.75v-4.5A1.752,1.752,0,0,0,286.582,341.332Zm0,0" transform="translate(-265 -326)" fill="#fff"/>
  <path id="Caminho_5" data-name="Caminho 5" d="M286.582,0h-7.5a1.752,1.752,0,0,0-1.75,1.75v10.5a1.752,1.752,0,0,0,1.75,1.75h7.5a1.752,1.752,0,0,0,1.75-1.75V1.75A1.752,1.752,0,0,0,286.582,0Zm0,0" transform="translate(-265)" fill="#fff"/>
</svg>
