<svg xmlns="http://www.w3.org/2000/svg" width="24" height="24" viewBox="0 0 24 24">
  <g id="money" transform="translate(99 -64)">
    <g id="Grupo_12" data-name="Grupo 12" transform="translate(-185.735 -22.735)">
      <path id="Caminho_8" data-name="Caminho 8" d="M271,275.4c.811-.2,1.41-.721,1.41-1.32s-.6-1.121-1.41-1.32Z" transform="translate(-171.59 -173)" fill="#fff"/>
      <path id="Caminho_9" data-name="Caminho 9" d="M98.735,91a7.735,7.735,0,1,0,7.735,7.735A7.744,7.744,0,0,0,98.735,91Zm3.516,9.838a3.059,3.059,0,0,1-2.813,2.756v.767a.7.7,0,0,1-1.406,0v-.767a3.059,3.059,0,0,1-2.813-2.756.7.7,0,0,1,1.406,0c0,.6.6,1.118,1.406,1.317v-2.78a2.756,2.756,0,1,1,0-5.512V93.1a.7.7,0,1,1,1.406,0v.76a3.059,3.059,0,0,1,2.813,2.756.7.7,0,0,1-1.406,0c0-.6-.6-1.118-1.406-1.317v2.78a3.059,3.059,0,0,1,2.813,2.756Z" fill="#fff"/>
      <path id="Caminho_10" data-name="Caminho 10" d="M212.41,182.761c-.811.2-1.41.721-1.41,1.32s.6,1.121,1.41,1.32Z" transform="translate(-114 -87.561)" fill="#fff"/>
    </g>
    <path id="Caminho_11" data-name="Caminho 11" d="M12,0A12,12,0,1,0,24,12,12.047,12.047,0,0,0,12,0Zm0,21.141A9.141,9.141,0,1,1,21.141,12,9.151,9.151,0,0,1,12,21.141Z" transform="translate(-99 64)" fill="#fff"/>
  </g>
</svg>
