<svg id="user" xmlns="http://www.w3.org/2000/svg" width="21.9" height="24.317" viewBox="0 0 21.9 24.317">
  <g id="Grupo_9" data-name="Grupo 9" transform="translate(-116)">
    <g id="Grupo_8" data-name="Grupo 8" transform="translate(121)">
      <path id="Caminho_6" data-name="Caminho 6" d="M127.33,0a6.33,6.33,0,1,0,6.33,6.33A6.337,6.337,0,0,0,127.33,0Z" transform="translate(-121)" fill="#fff"/>
    </g>
  </g>
  <g id="Grupo_11" data-name="Grupo 11" transform="translate(-117)">
    <g id="Grupo_10" data-name="Grupo 10" transform="translate(85 -283)">
      <path id="Caminho_7" data-name="Caminho 7" d="M50.124,302.832A9.366,9.366,0,0,0,43.41,300H40.49a9.366,9.366,0,0,0-6.714,2.832A9.575,9.575,0,0,0,31,309.587a.73.73,0,0,0,.73.73H52.17a.73.73,0,0,0,.73-.73A9.575,9.575,0,0,0,50.124,302.832Z" transform="translate(1 -3)" fill="#fff"/>
    </g>
  </g>
</svg>
